Normalized EMG Linear Envelopes
nRows=150
nColumns=4

endheader
time	 med_gas_r	  soleus_r	 tib_ant_r	
1.6249	  0.086329	  0.092996	  0.029972	
1.68739	  0.083369	  0.094401	  0.030189	
1.74989	  0.081920	  0.093298	  0.030116	
1.81238	  0.082378	  0.089596	  0.029968	
1.87488	  0.082173	  0.086707	  0.029974	
1.93738	  0.082313	  0.087641	  0.030435	
1.99987	  0.081534	  0.091065	  0.030898	
2.06237	  0.079687	  0.094485	  0.031011	
2.12486	  0.074863	  0.096675	  0.031026	
2.18736	  0.070788	  0.096934	  0.031070	
2.24986	  0.070087	  0.096729	  0.030666	
2.31235	  0.071489	  0.097296	  0.029789	
2.37485	  0.073095	  0.097227	  0.029917	
2.43734	  0.073334	  0.095529	  0.030903	
2.49984	  0.073418	  0.092640	  0.031019	
2.56234	  0.074233	  0.090173	  0.030181	
2.62483	  0.078534	  0.088748	  0.029440	
2.68733	  0.082951	  0.088102	  0.028954	
2.74982	  0.084637	  0.087872	  0.028946	
2.81232	  0.083991	  0.086900	  0.029383	
2.87482	  0.080738	  0.084435	  0.030428	
2.93731	  0.077194	  0.082995	  0.032758	
2.99981	  0.073237	  0.083826	  0.036911	
3.0623	  0.071717	  0.086225	  0.041747	
3.1248	  0.072598	  0.087732	  0.043277	
3.1873	  0.075802	  0.086264	  0.040336	
3.24979	  0.077103	  0.084086	  0.036307	
3.31229	  0.075210	  0.082440	  0.032865	
3.37478	  0.072335	  0.080933	  0.031057	
3.43728	  0.070822	  0.078923	  0.030607	
3.49978	  0.070758	  0.076964	  0.030403	
3.56227	  0.072158	  0.078416	  0.029347	
3.62477	  0.077688	  0.088397	  0.027967	
3.68726	  0.096526	  0.115245	  0.027996	
3.74976	  0.136398	  0.164017	  0.031276	
3.81226	  0.201082	  0.225757	  0.039045	
3.87475	  0.283280	  0.286461	  0.051877	
3.93725	  0.363220	  0.335915	  0.068897	
3.99974	  0.403929	  0.360180	  0.087637	
4.06224	  0.424546	  0.365340	  0.102466	
4.12474	  0.452976	  0.376960	  0.110187	
4.18723	  0.490118	  0.396527	  0.115031	
4.24973	  0.518397	  0.425312	  0.120854	
4.31222	  0.534231	  0.455492	  0.125351	
4.37472	  0.534572	  0.469694	  0.126357	
4.43722	  0.509208	  0.446605	  0.124744	
4.49971	  0.482514	  0.395404	  0.121742	
4.56221	  0.456118	  0.342450	  0.115299	
4.6247	  0.429278	  0.306783	  0.106832	
4.6872	  0.401906	  0.295380	  0.100943	
4.7497	  0.392640	  0.312302	  0.099723	
4.81219	  0.399878	  0.347659	  0.102492	
4.87469	  0.417048	  0.385011	  0.105879	
4.93718	  0.427316	  0.409782	  0.108545	
4.99968	  0.429178	  0.426183	  0.111623	
5.06218	  0.432495	  0.428984	  0.113288	
5.12467	  0.445170	  0.426132	  0.112860	
5.18717	  0.454496	  0.413905	  0.110489	
5.24966	  0.449410	  0.384268	  0.105019	
5.31216	  0.449592	  0.358935	  0.100704	
5.37466	  0.463538	  0.340123	  0.099381	
5.43715	  0.485343	  0.337766	  0.100612	
5.49965	  0.501509	  0.347237	  0.099753	
5.56214	  0.497994	  0.350706	  0.093767	
5.62464	  0.465506	  0.340998	  0.086936	
5.68714	  0.434279	  0.318349	  0.082933	
5.74963	  0.417488	  0.295659	  0.082064	
5.81213	  0.414721	  0.290081	  0.083343	
5.87462	  0.426633	  0.297000	  0.086013	
5.93712	  0.448778	  0.301788	  0.089362	
5.99962	  0.468298	  0.308502	  0.091697	
6.06211	  0.484860	  0.325081	  0.091131	
6.12461	  0.486333	  0.348795	  0.089445	
6.1871	  0.482218	  0.366087	  0.086320	
6.2496	  0.485262	  0.367085	  0.084783	
6.3121	  0.483710	  0.367801	  0.085337	
6.37459	  0.466459	  0.372301	  0.086506	
6.43709	  0.447718	  0.383433	  0.086637	
6.49958	  0.433690	  0.390695	  0.084925	
6.56208	  0.434955	  0.397347	  0.084030	
6.62458	  0.452080	  0.399148	  0.085300	
6.68707	  0.460199	  0.396408	  0.088433	
6.74957	  0.447049	  0.384431	  0.092034	
6.81206	  0.428496	  0.366770	  0.093189	
6.87456	  0.408986	  0.354301	  0.093978	
6.93706	  0.396740	  0.348607	  0.095318	
6.99955	  0.399321	  0.348467	  0.095435	
7.06205	  0.417355	  0.344631	  0.094195	
7.12454	  0.435152	  0.344622	  0.090604	
7.18704	  0.443120	  0.347577	  0.086639	
7.24954	  0.446988	  0.355067	  0.085104	
7.31203	  0.446523	  0.352500	  0.085479	
7.37453	  0.437616	  0.341635	  0.087382	
7.43702	  0.429284	  0.329632	  0.091685	
7.49952	  0.431559	  0.309897	  0.096487	
7.56202	  0.440040	  0.296912	  0.099824	
7.62451	  0.448828	  0.303879	  0.101129	
7.68701	  0.455025	  0.327394	  0.097969	
7.7495	  0.453903	  0.357922	  0.092970	
7.812	  0.453819	  0.380186	  0.089354	
7.8745	  0.465837	  0.384939	  0.088398	
7.93699	  0.488351	  0.382929	  0.088738	
7.99949	  0.513833	  0.389982	  0.089062	
8.06198	  0.526098	  0.394325	  0.089188	
8.12448	  0.528801	  0.385067	  0.088686	
8.18698	  0.524764	  0.367291	  0.089691	
8.24947	  0.500695	  0.359704	  0.091329	
8.31197	  0.468591	  0.367226	  0.091396	
8.37446	  0.448378	  0.389059	  0.090137	
8.43696	  0.443883	  0.431005	  0.089846	
8.49946	  0.446309	  0.478731	  0.090914	
8.56195	  0.456350	  0.516977	  0.092117	
8.62445	  0.466190	  0.521296	  0.090404	
8.68694	  0.476695	  0.495583	  0.086237	
8.74944	  0.502899	  0.467949	  0.082861	
8.81194	  0.526500	  0.452492	  0.081055	
8.87443	  0.531724	  0.447799	  0.081024	
8.93693	  0.531905	  0.444102	  0.082320	
8.99942	  0.521947	  0.444782	  0.081995	
9.06192	  0.507373	  0.443895	  0.079433	
9.12442	  0.502429	  0.435156	  0.076587	
9.18691	  0.505968	  0.433316	  0.076063	
9.24941	  0.517781	  0.453286	  0.080067	
9.3119	  0.546406	  0.493284	  0.087229	
9.3744	  0.598486	  0.530736	  0.095269	
9.4369	  0.646584	  0.550612	  0.099987	
9.49939	  0.673288	  0.548397	  0.099461	
9.56189	  0.676833	  0.534586	  0.095636	
9.62438	  0.655637	  0.522152	  0.091864	
9.68688	  0.623839	  0.523977	  0.090585	
9.74938	  0.579463	  0.527929	  0.088782	
9.81187	  0.548829	  0.515011	  0.084632	
9.87437	  0.526367	  0.495445	  0.079110	
9.93686	  0.487279	  0.475981	  0.073962	
9.99936	  0.445249	  0.454130	  0.070612	
10.0619	  0.405554	  0.414253	  0.068789	
10.1244	  0.376469	  0.358313	  0.068497	
10.1868	  0.363627	  0.300814	  0.068498	
10.2493	  0.356446	  0.255255	  0.069532	
10.3118	  0.344022	  0.222489	  0.073133	
10.3743	  0.319332	  0.191493	  0.080159	
10.4368	  0.288891	  0.166503	  0.090963	
10.4993	  0.264140	  0.151094	  0.102839	
10.5618	  0.248725	  0.142904	  0.111268	
10.6243	  0.227349	  0.142425	  0.113487	
10.6868	  0.213844	  0.146067	  0.111090	
10.7493	  0.214656	  0.149188	  0.105436	
10.8118	  0.216034	  0.148995	  0.096205	
10.8743	  0.205777	  0.144124	  0.084208	
10.9368	  0.193163	  0.134858	  0.073273	
